<svg xmlns="http://www.w3.org/2000/svg" viewBox="0 0 510.25 221.57"><defs><style>.cls-1{fill:#fff;}.cls-2{fill:#b22225;}</style></defs><g id="Layer_2" data-name="Layer 2"><g id="Layer_1-2" data-name="Layer 1"><path class="cls-1" d="M158.85,179.31h10v12.4a22.46,22.46,0,0,1-8.88,1.68q-6.44,0-9.87-3.64t-3.43-10.3a15.51,15.51,0,0,1,1.7-7.35,11.9,11.9,0,0,1,4.88-5,14.77,14.77,0,0,1,7.28-1.75,18.6,18.6,0,0,1,8,1.64l-.76,1.71a17.26,17.26,0,0,0-7.33-1.64,11.22,11.22,0,0,0-8.53,3.32q-3.15,3.33-3.15,9,0,6.13,3,9.24t8.8,3.09a16.93,16.93,0,0,0,6.38-1.06v-9.56h-8.09Z"/><path class="cls-1" d="M191.22,193H176.36v-27.2h14.86v1.75h-13v10.28H190.5v1.75H178.25v11.67h13Z"/><path class="cls-1" d="M210,193,199.85,167.9h-.15c.1,1.54.15,3.11.15,4.73V193H198v-27.2H201l9.63,23.92h.12l9.63-23.92h2.87V193H221.3V172.4c0-1.44.08-2.92.23-4.46h-.15L211.2,193Z"/><path class="cls-1" d="M253.71,167.14a10.29,10.29,0,0,0-8.06,3.27q-2.94,3.27-2.94,9c0,3.88.93,6.9,2.77,9s4.49,3.22,7.93,3.22a21.59,21.59,0,0,0,6.29-.87v1.67a20.63,20.63,0,0,1-6.74.95,11.44,11.44,0,0,1-9-3.7q-3.3-3.7-3.29-10.35a16.21,16.21,0,0,1,1.57-7.31,11.3,11.3,0,0,1,4.52-4.88,13.3,13.3,0,0,1,6.85-1.72,16.5,16.5,0,0,1,7.13,1.48l-.76,1.72A13.72,13.72,0,0,0,253.71,167.14Z"/><path class="cls-1" d="M289.28,179.38q0,6.48-3.24,10.24a12.44,12.44,0,0,1-17.84,0Q265,185.86,265,179.34t3.26-10.22a11.26,11.26,0,0,1,8.93-3.73,11.13,11.13,0,0,1,8.91,3.75Q289.27,172.89,289.28,179.38Zm-22.26,0c0,3.89.87,6.91,2.61,9a9.1,9.1,0,0,0,7.48,3.19c3.27,0,5.78-1,7.51-3.16s2.59-5.13,2.59-9.06-.86-6.92-2.59-9a10.46,10.46,0,0,0-15,0Q267,173.56,267,179.38Z"/><path class="cls-1" d="M296.18,193v-27.2h1.89v25.41h13V193Z"/><path class="cls-1" d="M316.38,193v-27.2h1.9v25.41h13V193Z"/><path class="cls-1" d="M351.45,193H336.58v-27.2h14.87v1.75h-13v10.28h12.24v1.75H338.48v11.67h13Z"/><path class="cls-1" d="M369.86,167.14a10.27,10.27,0,0,0-8.05,3.27q-2.94,3.27-2.94,9c0,3.88.92,6.9,2.77,9s4.49,3.22,7.92,3.22a21.54,21.54,0,0,0,6.29-.87v1.67a20.57,20.57,0,0,1-6.73.95,11.47,11.47,0,0,1-9-3.7q-3.29-3.7-3.29-10.35a16.35,16.35,0,0,1,1.57-7.31,11.36,11.36,0,0,1,4.52-4.88,13.36,13.36,0,0,1,6.86-1.72,16.5,16.5,0,0,1,7.13,1.48l-.77,1.72A13.66,13.66,0,0,0,369.86,167.14Z"/><path class="cls-1" d="M389.66,193h-1.92V167.6H378.9v-1.78h19.59v1.78h-8.83Z"/><path class="cls-1" d="M426,179.38q0,6.48-3.23,10.24a12.45,12.45,0,0,1-17.85,0q-3.22-3.76-3.23-10.28T405,169.12a12.51,12.51,0,0,1,17.84,0Q426,172.89,426,179.38Zm-22.25,0c0,3.89.87,6.91,2.61,9a9.08,9.08,0,0,0,7.48,3.19q4.9,0,7.5-3.16t2.6-9.06q0-5.88-2.6-9a10.46,10.46,0,0,0-15,0Q403.8,173.56,403.79,179.38Z"/><path class="cls-1" d="M434.84,181.17V193h-1.9v-27.2h6.48q5.06,0,7.48,1.87a6.66,6.66,0,0,1,2.42,5.62,7.31,7.31,0,0,1-1.45,4.62,8,8,0,0,1-4.38,2.7L450.88,193h-2.27l-7-11.85Zm0-1.64H440a8.23,8.23,0,0,0,5.34-1.54,5.46,5.46,0,0,0,1.9-4.53,5.31,5.31,0,0,0-1.86-4.52q-1.86-1.41-6.07-1.41h-4.5Z"/><path class="cls-1" d="M151.23,207.27a2.3,2.3,0,0,1,2.5,2h.05l.53-1.81H155L153,217.16h-.73l.4-2.45h0a6.31,6.31,0,0,1-1.68,1.95,3.42,3.42,0,0,1-2.12.68c-1.68,0-2.52-1.11-2.52-3.35a8.63,8.63,0,0,1,.68-3.37,5.91,5.91,0,0,1,1.79-2.47A4,4,0,0,1,151.23,207.27ZM149,216.54a2.77,2.77,0,0,0,1.59-.56,5.49,5.49,0,0,0,1.42-1.49,7.21,7.21,0,0,0,1-2.06,6.64,6.64,0,0,0,.34-1.9,3.16,3.16,0,0,0-.24-1.27,2,2,0,0,0-.69-.89,1.87,1.87,0,0,0-1.13-.33,3.08,3.08,0,0,0-2,.74,5.18,5.18,0,0,0-1.47,2.2,8,8,0,0,0-.57,2.91,3.65,3.65,0,0,0,.44,2A1.56,1.56,0,0,0,149,216.54Z"/><path class="cls-1" d="M171.16,207.29c0,3-1.83,4.48-5.47,4.48h-1.8l-1.16,5.39h-.92l2.78-13.09h2.82a4.12,4.12,0,0,1,2.78.83A3,3,0,0,1,171.16,207.29ZM164,211h1.71a5.33,5.33,0,0,0,3.35-.87,3.26,3.26,0,0,0,1.09-2.73c0-1.64-1-2.46-3-2.46h-1.89Z"/><path class="cls-1" d="M177.28,207.24a3.2,3.2,0,0,1,2.5,1,3.88,3.88,0,0,1,.88,2.68,8.4,8.4,0,0,1-.64,3.3,5.37,5.37,0,0,1-1.75,2.35,4.31,4.31,0,0,1-2.57.8,3.13,3.13,0,0,1-2.5-1,4.14,4.14,0,0,1-.85-2.81,7.79,7.79,0,0,1,.65-3.2,5.52,5.52,0,0,1,1.76-2.31A4.23,4.23,0,0,1,177.28,207.24Zm-.07.77a3.13,3.13,0,0,0-2,.7,4.75,4.75,0,0,0-1.41,2,7.2,7.2,0,0,0-.53,2.78q0,3.06,2.52,3.06a3.17,3.17,0,0,0,2-.69,4.64,4.64,0,0,0,1.41-2,8.13,8.13,0,0,0,.52-3,3.11,3.11,0,0,0-.65-2.12A2.38,2.38,0,0,0,177.21,208Z"/><path class="cls-1" d="M188.24,207.26a4.63,4.63,0,0,1,1.1.12l-.19.83a3.35,3.35,0,0,0-1-.13,2.66,2.66,0,0,0-1.61.57,5.38,5.38,0,0,0-1.37,1.72,9.83,9.83,0,0,0-.89,2.49l-.9,4.3h-.88l2.07-9.73h.72l-.26,1.82h0a8.28,8.28,0,0,1,1.11-1.21,3.47,3.47,0,0,1,.95-.58A3.08,3.08,0,0,1,188.24,207.26Z"/><path class="cls-1" d="M195.11,207.43l-.16.72h-2.53l-1.21,5.69a7.14,7.14,0,0,0-.2,1.47c0,.83.38,1.24,1.13,1.24a4.45,4.45,0,0,0,1.36-.23v.77a5.74,5.74,0,0,1-1.52.25,1.86,1.86,0,0,1-1.37-.48,2,2,0,0,1-.49-1.42,9.53,9.53,0,0,1,.26-1.85l1.16-5.44h-1.63l.12-.6,1.65-.15.87-2.27H193l-.49,2.3Z"/><path class="cls-1" d="M200.59,207.27a2.29,2.29,0,0,1,2.5,2h.06l.53-1.81h.71l-2,9.73h-.73l.4-2.45h0a6.45,6.45,0,0,1-1.68,1.95,3.42,3.42,0,0,1-2.12.68c-1.68,0-2.52-1.11-2.52-3.35a8.63,8.63,0,0,1,.67-3.37,6,6,0,0,1,1.8-2.47A4,4,0,0,1,200.59,207.27Zm-2.23,9.27A2.75,2.75,0,0,0,200,216a5.52,5.52,0,0,0,1.43-1.49,7.21,7.21,0,0,0,1-2.06,7,7,0,0,0,.33-1.9,3.34,3.34,0,0,0-.23-1.27,2.12,2.12,0,0,0-.69-.89,1.88,1.88,0,0,0-1.14-.33,3.06,3.06,0,0,0-2,.74,5.18,5.18,0,0,0-1.47,2.2,7.82,7.82,0,0,0-.58,2.91,3.56,3.56,0,0,0,.45,2A1.56,1.56,0,0,0,198.36,216.54Z"/><path class="cls-1" d="M206.71,217.16h-.84l3-13.93h.84Z"/><path class="cls-1" d="M216.14,214.52a2.55,2.55,0,0,1-.92,2.06,3.82,3.82,0,0,1-2.51.76,5.42,5.42,0,0,1-2.73-.67v-1a5.86,5.86,0,0,0,1.37.64,4.35,4.35,0,0,0,1.33.22,3,3,0,0,0,1.89-.51,1.78,1.78,0,0,0,.65-1.47,1.53,1.53,0,0,0-.14-.66,1.71,1.71,0,0,0-.45-.55,8.58,8.58,0,0,0-1.18-.77,5.85,5.85,0,0,1-1.8-1.3,2.23,2.23,0,0,1-.46-1.43,2.34,2.34,0,0,1,.88-1.88,3.57,3.57,0,0,1,2.33-.73,7.35,7.35,0,0,1,1.42.16,5.08,5.08,0,0,1,1.25.42l-.31.79a5.43,5.43,0,0,0-2.36-.58,2.67,2.67,0,0,0-1.67.48,1.47,1.47,0,0,0-.63,1.23,1.74,1.74,0,0,0,.15.79,2.31,2.31,0,0,0,.55.62,6.47,6.47,0,0,0,1.07.68,9.55,9.55,0,0,1,1.44.93,2.33,2.33,0,0,1,.63.77A2.26,2.26,0,0,1,216.14,214.52Z"/><path class="cls-1" d="M230,217.16h-6.51l2.77-13.09h6.52l-.19.84H227l-1,5h5.29l-.19.85h-5.27l-1.21,5.61h5.62Z"/><path class="cls-1" d="M236.38,212.84l-3.52,4.32h-1.08l4.22-5-2.2-4.73h.9l1.85,4.14,3.34-4.14H241l-4,4.78,2.31,4.95h-.88Z"/><path class="cls-1" d="M245.46,217.31a2.3,2.3,0,0,1-2.5-2h0q-.12.65-1.33,6.22h-.89l3-14.14h.73l-.4,2.45h.05a6.45,6.45,0,0,1,1.75-2,3.62,3.62,0,0,1,2-.63,2.23,2.23,0,0,1,1.87.83,4.08,4.08,0,0,1,.65,2.53,8.69,8.69,0,0,1-.65,3.32A6.09,6.09,0,0,1,248,216.4,3.92,3.92,0,0,1,245.46,217.31ZM247.7,208a2.79,2.79,0,0,0-1.56.53,5.49,5.49,0,0,0-1.45,1.5,6.91,6.91,0,0,0-1,2.13,7,7,0,0,0-.32,1.86,2.74,2.74,0,0,0,.55,1.8,1.85,1.85,0,0,0,1.51.68,3,3,0,0,0,2-.76,5.11,5.11,0,0,0,1.47-2.18,7.77,7.77,0,0,0,.57-2.91C249.49,208.93,248.89,208,247.7,208Z"/><path class="cls-1" d="M255.8,217.34a3.05,3.05,0,0,1-2.42-1,4,4,0,0,1-.87-2.73,7.7,7.7,0,0,1,.64-3.11,5.93,5.93,0,0,1,1.75-2.37,3.9,3.9,0,0,1,2.46-.88,2.38,2.38,0,0,1,1.63.55,1.88,1.88,0,0,1,.61,1.49,2.7,2.7,0,0,1-1.47,2.47,8.78,8.78,0,0,1-4.35.85h-.29a6,6,0,0,0-.05.88,3.38,3.38,0,0,0,.66,2.25,2.37,2.37,0,0,0,1.91.78,5.45,5.45,0,0,0,2.47-.66v.85A6,6,0,0,1,255.8,217.34Zm1.45-9.3a3,3,0,0,0-2.18,1,6.08,6.08,0,0,0-1.46,2.76h.44c3.09,0,4.63-.8,4.63-2.42a1.37,1.37,0,0,0-.38-1A1.42,1.42,0,0,0,257.25,208Z"/><path class="cls-1" d="M266.61,207.26a4.57,4.57,0,0,1,1.1.12l-.19.83a3.3,3.3,0,0,0-1-.13,2.63,2.63,0,0,0-1.6.57,5.12,5.12,0,0,0-1.37,1.72,9.48,9.48,0,0,0-.9,2.49l-.89,4.3h-.88l2.07-9.73h.71l-.26,1.82h.06a7.79,7.79,0,0,1,1.1-1.21,3.67,3.67,0,0,1,1-.58A3,3,0,0,1,266.61,207.26Z"/><path class="cls-1" d="M268.83,217.16H268l2.07-9.73h.86Zm1.58-12.23a1.42,1.42,0,0,1,.19-.79.63.63,0,0,1,.54-.3c.34,0,.51.22.51.65a1.41,1.41,0,0,1-.19.8.61.61,0,0,1-.51.3.49.49,0,0,1-.4-.17A.73.73,0,0,1,270.41,204.93Z"/><path class="cls-1" d="M276,217.34a3.05,3.05,0,0,1-2.42-1,4,4,0,0,1-.87-2.73,7.87,7.87,0,0,1,.64-3.11,5.93,5.93,0,0,1,1.75-2.37,3.9,3.9,0,0,1,2.46-.88,2.38,2.38,0,0,1,1.63.55,1.88,1.88,0,0,1,.61,1.49,2.7,2.7,0,0,1-1.47,2.47,8.78,8.78,0,0,1-4.35.85h-.29a6,6,0,0,0-.05.88,3.38,3.38,0,0,0,.66,2.25,2.37,2.37,0,0,0,1.91.78,5.45,5.45,0,0,0,2.47-.66v.85A6,6,0,0,1,276,217.34Zm1.45-9.3a3,3,0,0,0-2.18,1,6.08,6.08,0,0,0-1.46,2.76h.44c3.09,0,4.64-.8,4.64-2.42a1.34,1.34,0,0,0-.39-1A1.42,1.42,0,0,0,277.49,208Z"/><path class="cls-1" d="M287.31,217.16l1.33-6.2a6.09,6.09,0,0,0,.19-1.39,1.54,1.54,0,0,0-.39-1.12,1.6,1.6,0,0,0-1.2-.41,3.38,3.38,0,0,0-1.89.6,4.9,4.9,0,0,0-1.49,1.68,9.23,9.23,0,0,0-.92,2.57l-.92,4.27h-.88l2.07-9.73H284l-.33,2h.05a4.4,4.4,0,0,1,3.73-2.14,2.39,2.39,0,0,1,1.74.58,2.2,2.2,0,0,1,.59,1.65,7.81,7.81,0,0,1-.22,1.63l-1.32,6Z"/><path class="cls-1" d="M295.29,217.34a3.16,3.16,0,0,1-2.46-1,3.92,3.92,0,0,1-.9-2.74,8,8,0,0,1,.66-3.24,5.32,5.32,0,0,1,1.78-2.3,4.35,4.35,0,0,1,2.59-.8,5.69,5.69,0,0,1,2.16.39l-.25.81a4.68,4.68,0,0,0-1.95-.43,3.38,3.38,0,0,0-2.08.69,4.54,4.54,0,0,0-1.46,2,7.6,7.6,0,0,0-.53,2.87,3.25,3.25,0,0,0,.66,2.18,2.33,2.33,0,0,0,1.87.77,5.16,5.16,0,0,0,2.35-.53v.82A5.45,5.45,0,0,1,295.29,217.34Z"/><path class="cls-1" d="M303.47,217.34a3,3,0,0,1-2.41-1,4,4,0,0,1-.87-2.73,7.86,7.86,0,0,1,.63-3.11,6,6,0,0,1,1.75-2.37,4,4,0,0,1,2.46-.88,2.34,2.34,0,0,1,1.63.55,1.88,1.88,0,0,1,.61,1.49,2.69,2.69,0,0,1-1.46,2.47,8.83,8.83,0,0,1-4.35.85h-.3a7.75,7.75,0,0,0-.05.88,3.38,3.38,0,0,0,.66,2.25,2.38,2.38,0,0,0,1.91.78,5.41,5.41,0,0,0,2.47-.66v.85A6,6,0,0,1,303.47,217.34Zm1.46-9.3a3,3,0,0,0-2.18,1,6,6,0,0,0-1.46,2.76h.44c3.09,0,4.63-.8,4.63-2.42a1.34,1.34,0,0,0-.39-1A1.41,1.41,0,0,0,304.93,208Z"/><path class="cls-1" d="M160.83,127.08H145.51V69.21h34V81.12H160.83V92.19H178.7V105H160.83Z"/><path class="cls-1" d="M225.06,104.27q0,11.06-6,17.26t-16.66,6.19q-10.27,0-16.35-6.33T180,104.27q0-11.07,6-17.15T202.69,81a23.72,23.72,0,0,1,11.75,2.84,19.15,19.15,0,0,1,7.87,8.1A26.07,26.07,0,0,1,225.06,104.27Zm-29.23,0q0,5.81,1.55,8.86a5.39,5.39,0,0,0,5.22,3,5.25,5.25,0,0,0,5.1-3c1-2,1.5-5,1.49-8.86s-.51-6.78-1.51-8.72a6,6,0,0,0-10.32,0C196.35,97.49,195.84,100.39,195.83,104.27Z"/><path class="cls-1" d="M254,81.21a23.1,23.1,0,0,1,3.8.31l.84.14-1.35,13.87a23.33,23.33,0,0,0-5.21-.45c-3.35,0-5.77.74-7.29,2.2a8.43,8.43,0,0,0-2.27,6.34v23.46H227.21V82h11.4l2.38,6.8h.75a15,15,0,0,1,5.34-5.48A13.19,13.19,0,0,1,254,81.21Z"/><path class="cls-1" d="M304.64,82V89.6l-6.23,2.29a11,11,0,0,1,1.29,5.43q0,7.37-5.15,11.42T279.1,112.8a19.43,19.43,0,0,1-4-.33,4.47,4.47,0,0,0-.56,2c0,.77.63,1.38,1.89,1.79a16.25,16.25,0,0,0,4.95.62h7.56q15.31,0,15.32,12.9a14.61,14.61,0,0,1-7.1,13q-7.09,4.62-19.93,4.62-9.69,0-14.93-3.24a10.31,10.31,0,0,1-5.26-9.31q0-8.17,10.13-10.53a9.18,9.18,0,0,1-3.63-2.86,6.1,6.1,0,0,1-.39-7.66,17.31,17.31,0,0,1,4.87-3.89,12.08,12.08,0,0,1-5.58-4.9,15.4,15.4,0,0,1-2-8.12q0-7.44,5.07-11.54T280,81.17c.86,0,2.26.09,4.29.28s3.54.36,4.51.53ZM270.54,133a3.67,3.67,0,0,0,2.17,3.22,11.61,11.61,0,0,0,5.76,1.22A25,25,0,0,0,287.9,136c2.36-1,3.55-2.24,3.55-3.79a2.77,2.77,0,0,0-2.16-2.66,19.41,19.41,0,0,0-6.2-.77h-6.35a7.63,7.63,0,0,0-4.43,1.22,3.57,3.57,0,0,0-1.74,3Zm5.32-36.59q0,6.94,4.82,6.94a4,4,0,0,0,3.45-1.7,8.82,8.82,0,0,0,1.21-5.11q0-7-4.66-7c-3.19,0-4.78,2.26-4.79,6.88Z"/><path class="cls-1" d="M327.11,127.72q-11.28,0-17.5-6t-6.23-17.09q0-11.43,5.77-17.54T325.64,81q10.2,0,15.75,5.32c3.69,3.55,5.54,8.65,4.95,15.32v6.71H319.11a7.82,7.82,0,0,0,2.77,6.17,10.73,10.73,0,0,0,7.1,2.15,33.6,33.6,0,0,0,7.55-.77,31.93,31.93,0,0,0,7.26-2.65v11.19a24.44,24.44,0,0,1-7.35,2.56A53.1,53.1,0,0,1,327.11,127.72Zm-.91-35.86a6.49,6.49,0,0,0-4.61,1.7A8.16,8.16,0,0,0,319.42,99h13.39A7.77,7.77,0,0,0,331,93.78,6.07,6.07,0,0,0,326.2,91.86Z"/><path class="cls-1" d="M349.74,69.21h20.5q12,0,17.79,3.5t5.8,10.91a13.73,13.73,0,0,1-2.52,8.31,11.35,11.35,0,0,1-6.68,4.43v.4q5.46,1.42,7.92,4.75a14.11,14.11,0,0,1,2.45,8.62,14.72,14.72,0,0,1-6,12.41q-6,4.54-16.38,4.54H349.74Zm16.17,22.13h4.64A8.38,8.38,0,0,0,375.67,90a4.77,4.77,0,0,0,1.81-4q0-4.8-7.25-4.8h-4.32Zm0,11.06v11.91h5.4q7.19,0,7.17-6a5.18,5.18,0,0,0-1.91-4.34A8.81,8.81,0,0,0,371,102.4Z"/><path class="cls-1" d="M440.75,104.27q0,11.06-6,17.26t-16.67,6.19q-10.28,0-16.35-6.33t-6.07-17.12q0-11.07,5.95-17.15T418.36,81a23.85,23.85,0,0,1,11.75,2.84,19.19,19.19,0,0,1,7.86,8.1A26.21,26.21,0,0,1,440.75,104.27Zm-29.23,0c0,3.87.51,6.82,1.55,8.86a5.39,5.39,0,0,0,5.22,3,5.22,5.22,0,0,0,5.1-3c1-2,1.5-5,1.5-8.86s-.5-6.78-1.51-8.72a6,6,0,0,0-10.32,0C412,97.49,411.52,100.39,411.52,104.27Z"/><path class="cls-1" d="M465.2,115.84a20.89,20.89,0,0,0,7.08-1.56v10.5a29.91,29.91,0,0,1-5.92,1.93,33.44,33.44,0,0,1-6.63.58q-7.8,0-11.24-3.85t-3.44-11.8V93H440V86.79L446.87,82l4.06-9.34h10.29V82h11.06V93.89H461.22v17.56C461.22,114.37,462.54,115.84,465.2,115.84Z"/><path class="cls-1" d="M510.24,113.07q0,7.25-4.93,11t-14.18,3.7a60.51,60.51,0,0,1-8.72-.54,36.13,36.13,0,0,1-7.58-2V112.74a45.72,45.72,0,0,0,7.95,2.63,32.91,32.91,0,0,0,7.71,1c3.41,0,5.06-.76,5.06-2.31a2.61,2.61,0,0,0-1.42-2.13,64.79,64.79,0,0,0-8.22-3.64q-6.21-2.55-8.68-5.8a13.18,13.18,0,0,1-2.47-8.23,11.38,11.38,0,0,1,4.85-9.79Q484.47,81,493.35,81a35.23,35.23,0,0,1,8.38,1,49.81,49.81,0,0,1,8.15,2.85l-4.26,10a49,49,0,0,0-6.57-2.36,21.27,21.27,0,0,0-5.66-1c-2.55,0-3.82.62-3.82,1.87a2.33,2.33,0,0,0,1.33,2,72,72,0,0,0,7.71,3.33,29.65,29.65,0,0,1,7.07,3.82,11.57,11.57,0,0,1,3.41,4.4A15.47,15.47,0,0,1,510.24,113.07Z"/><path class="cls-2" d="M61.27,177.35,0,128.79,65.62,0,80.08,71.35l9.7-9.7L121.35,127ZM23,123.78l38,30.08,37.83-31.68L84.52,92.66,68.93,108.22,58.13,54.81Z"/></g></g></svg>